<svg xmlns="http://www.w3.org/2000/svg" xmlns:xlink="http://www.w3.org/1999/xlink" version="1.1" x="0px" y="0px" viewBox="0 0 454.317 630.00375" style="enable-background:new 0 0 454.317 504.003;" xml:space="preserve">
  <g>
    <path fill="#672cbc" d="M400.262,92.15l29.54,10.926c1.479,0.547,3.145,0.172,4.248-0.956s1.439-2.801,0.858-4.268L399.94,9.503   c-2.187-5.533-7.235-9.166-13.178-9.48c-5.958-0.321-11.354,2.769-14.116,8.046l-8.68,16.589   c-4.512,8.617-6.174,18.277-4.807,27.937c0,0,0,0,0.001,0.001l63.459,447.969c0.243,1.712,1.557,3.073,3.258,3.377   c0.235,0.042,0.471,0.063,0.704,0.063c1.452,0,2.814-0.792,3.521-2.104c0.916-1.701,22.455-42.262,24.176-94.825   C455.849,359.111,409.472,135.922,400.262,92.15z"/>
    <path fill="#672cbc" d="M364.598,242.243c1.568,0.646,3.371,0.232,4.502-1.03s1.343-3.1,0.53-4.587l-44.61-81.63   c-0.746-1.365-2.199-2.182-3.77-2.073c-1.553,0.101-2.906,1.093-3.469,2.544c-0.487,1.254-11.885,30.996-8.535,55.804   c1.308,9.668,6.816,26.128,13.195,45.188c9.726,29.061,21.83,65.228,20.695,84.379c-0.688,11.555-7.049,19.84-17.452,22.729   c-12.892,3.582-27.704-2.393-36.026-14.523c-6.953-10.141-12.902-41.662-18.655-72.146c-4.433-23.487-9.016-47.773-14.538-65.983   c-4.75-15.664-11.813-33.364-24.307-31.242c-16.994,2.897-12.708,36.297-7.282,78.581c4.568,35.602,9.746,75.952,1.007,95.692   c-6.865,15.509-17.951,24.032-31.241,24.032c-0.101,0-0.201-0.001-0.302-0.002c-15.437-0.149-31.06-11.79-37.991-28.309   c-5.518-13.145-1.87-43.273,1.657-72.411c4.188-34.597,8.146-67.274-1.635-79.485c-2.47-3.084-5.667-4.842-9.504-5.227   c-8.645-0.852-17.704,7.978-27.637,27.035c-7.92,15.197-16.019,36.116-23.418,60.494c-5.913,19.479-8.639,39.078-11.044,56.369   c-3.203,23.029-5.969,42.918-14.832,44.044c-3.502,0.447-6.59-0.558-9.432-3.062c-9.311-8.206-15.095-31.591-15.095-61.03   c0-33.864,17.48-73.105,17.657-73.497c0.734-1.632,0.292-3.55-1.077-4.701c-1.37-1.15-3.338-1.251-4.821-0.248   c-0.136,0.093-13.678,9.125-19.881,1.009c-0.784-1.026-3.979-7.6,10.159-36.276c7.805-15.829,16.95-30.311,17.041-30.455   c1.051-1.658,0.742-3.834-0.727-5.135c-1.472-1.302-3.668-1.343-5.186-0.102c-29.025,23.747-61.229,76.249-58.403,95.213   c1.939,13.069,12.232,18.356,20.141,19.896c-2.092,8.514-6.335,27.661-7.437,46.879c-1.346,23.625,2.188,55.702,13.114,74.111   c5.637,9.479,15.379,16.158,26.729,18.324c12.297,2.344,25.075-0.988,35.964-9.392c19.078-14.726,22.307-41.478,25.429-67.35   c0.711-5.892,1.445-11.984,2.356-17.731c0.894-5.633,2.043-11.124,3.302-16.287c-1.008,23.583,0.149,53.391,9.74,72.85   c9.838,19.97,25.285,34.31,43.498,40.38c6.335,2.111,12.836,3.162,19.396,3.161c10.327,0,20.801-2.604,30.984-7.771   c15.769-8.004,26.665-21.802,31.511-39.903c0.727-2.716,1.267-5.334,1.665-7.787c6.573,12.276,18.07,28.304,35.493,34.81   c17.17,6.417,38.007,4.678,54.38-4.545c11.691-6.585,26.688-20.033,31.74-46.708c7.327-38.669-16.759-95.615-27.65-118.684   L364.598,242.243z"/>
    <path fill="#672cbc" d="M181.425,162.926c1.858,1.197,4.333,0.658,5.528-1.198l4.976-7.73c-0.403,5.622,0.105,11.185,2.519,15.274   c2.114,3.584,5.488,5.801,9.756,6.411c0.736,0.104,1.462,0.157,2.175,0.157c3.421,0,6.563-1.201,9.187-3.531   c5.076-4.509,7.591-12.778,8.827-20.358c2.67,4.25,6.19,8.329,10.654,10.634c4.637,2.395,9.592,2.64,14.729,0.728   c6.217-2.314,8.499-6.502,9.319-9.607c3.254-12.324-10.663-29.378-12.261-31.282c-1.419-1.69-3.94-1.912-5.633-0.493   c-1.692,1.418-1.915,3.94-0.497,5.634c5.003,5.979,12.32,17.809,10.654,24.103c-0.317,1.2-1.117,2.937-4.373,4.148   c-2.974,1.106-5.676,0.998-8.259-0.333c-7.319-3.769-12.093-16.34-13.313-20.861c-0.524-1.957-2.433-3.209-4.432-2.925   c-2.004,0.287-3.478,2.028-3.432,4.053c0.209,9.133-1.588,25.512-7.302,30.583c-1.413,1.255-2.969,1.71-4.914,1.433   c-1.879-0.269-3.111-1.056-3.996-2.554c-3.749-6.349,0.097-22.555,3.401-31.277c0.725-1.915-0.112-4.068-1.939-4.99   c-1.831-0.922-4.057-0.314-5.164,1.406l-17.41,27.05C179.031,159.255,179.568,161.731,181.425,162.926z"/>
    <path fill="#672cbc" d="M215.323,110.125c-0.238,1.861,0.85,3.638,2.615,4.272c0.443,0.159,0.9,0.235,1.352,0.235c1.343,0,2.635-0.678,3.384-1.866   c0.841-1.333,20.55-32.941,16.702-58.44c-3.962-26.26-29.183-36.912-30.254-37.353c-1.12-0.46-2.384-0.39-3.443,0.191   c-1.06,0.58-1.801,1.609-2.015,2.799l-6.17,34.25c-0.241,1.34,0.215,2.711,1.212,3.638   C212.72,70.887,218.155,87.986,215.323,110.125z"/>
  </g>
</svg>
