<svg xmlns="http://www.w3.org/2000/svg" xmlns:xlink="http://www.w3.org/1999/xlink" version="1.1" x="0px" y="0px" viewBox="0 0 100 125" enable-background="new 0 0 100 100" xml:space="preserve" fill="#8789A3">
  <path d="M6.49,59.761h9.683c0.823,0,1.49-0.667,1.49-1.49V29.222c0-0.823-0.667-1.49-1.49-1.49H6.49c-0.822,0-1.49,0.667-1.49,1.49  v29.049C5,59.094,5.667,59.761,6.49,59.761z"/>
  <path d="M77.683,40.768c-6.327,0-11.858,3.394-14.881,8.458c1.479,0.301,2.783,0.583,3.871,0.912  c4.985,1.504,6.986,5.757,6.759,9.304c-0.209,3.254-2.271,5.761-5.129,6.237c-0.858,0.143-1.771,0.213-2.791,0.213  c-1.121-0.001-2.26-0.089-3.392-0.205c2.815,5.752,8.725,9.715,15.562,9.715C87.247,75.403,95,67.65,95,58.085  C95,48.521,87.247,40.768,77.683,40.768z"/>
  <path d="M62.84,44.249c2.507-2.69,5.735-4.696,9.377-5.713c-7.833-7.918-13.979-12.756-21.164-13.783  c-8.311-1.187-22.938,4.719-30.412,6.362v25.566c4.266,1.684,9.691,5.577,14.295,6.23c8.935,1.268,16.208-0.809,20.383-0.809  c4.175,0,8.768,1.259,12.493,0.639c3.724-0.621,3.942-7.956-2.001-9.75S43.605,50.264,45.84,41.885  C47.304,36.394,56.602,40.657,62.84,44.249z"/>
</svg>
