<svg xmlns="http://www.w3.org/2000/svg" viewBox="0 0 100 125" x="0px" y="0px">
  <path
    d="M75.68,32.46,58.16,20.52a14.47,14.47,0,0,0-16.32,0L24.32,32.46a14.47,14.47,0,0,0-6.32,12V70A12,12,0,0,0,30,82H70A12,12,0,0,0,82,70V44.43A14.47,14.47,0,0,0,75.68,32.46ZM74,70a4,4,0,0,1-4,4H30a4,4,0,0,1-4-4V44.43a6.49,6.49,0,0,1,2.83-5.36L46.35,27.13a6.46,6.46,0,0,1,7.3,0L71.17,39.07A6.49,6.49,0,0,1,74,44.43Z"
    fill="#672CBC"
  />
  <path
    d="M60,58H40a4,4,0,0,0,0,8H60a4,4,0,0,0,0-8Z"
    fill="#672CBC"
  />
</svg>
