<svg xmlns="http://www.w3.org/2000/svg" data-name="Layer 1" viewBox="0 0 64 80" x="0px" y="0px">
  <polygon points="43 55.01 47 53.58 47 44.18 43 44.85 43 55.01"  />
  <path d="M5,26.87v2.06l1.92-.14a.9975.9975,0,1,1,.14,1.99L5,30.93V49.3l27,9.64,9-3.22V44a.9993.9993,0,0,1,.84-.99l6-1A1.0083,1.0083,0,0,1,49,43v9.87L59,49.3V30.93l-2.06-.15a.9993.9993,0,0,1-.93-1.07.9858.9858,0,0,1,1.07-.92l1.92.14V26.87L32,23.01Zm13.18,3.12c-.08,0-5.55.41-5.63.4a1.0022,1.0022,0,0,1-.07-2L18.04,28A.9977.9977,0,0,1,18.18,29.99Zm11.11-.79c-.08,0-5.55.4-5.63.4a1.0022,1.0022,0,0,1-.07-2l5.56-.4A1.0027,1.0027,0,0,1,29.29,29.2Zm16.67-1.21,5.56.4a1.0022,1.0022,0,0,1-.07,2h-.07l-5.56-.4A1.0027,1.0027,0,0,1,45.96,27.99ZM34.85,27.2l5.56.4a.9979.9979,0,0,1-.15,1.99l-5.55-.39A1.0026,1.0026,0,0,1,34.85,27.2Z" fill="#a164f4" />
  <path d="M32,5.06,5,14.7v6.06l26.79-5.74a.9912.9912,0,0,1,.42,0L59,20.76V14.7Z" fill="#a164f4" />
  <path d="M5,22.81v2.04C5.13,24.84,31.75,21,32,21c.22,0,26.83,3.83,27,3.85V22.81L32,17.02Z" />
</svg>
