<?xml version="1.0" standalone="no"?>
<!DOCTYPE svg PUBLIC "-//W3C//DTD SVG 20010904//EN"
 "http://www.w3.org/TR/2001/REC-SVG-20010904/DTD/svg10.dtd">
<svg version="1.0" xmlns="http://www.w3.org/2000/svg"
 width="512.000000pt" height="512.000000pt" viewBox="0 0 512.000000 512.000000"
 preserveAspectRatio="xMidYMid meet">

<g transform="translate(0.000000,512.000000) scale(0.100000,-0.100000)"
fill="#672CBC" stroke="none">
<path d="M2315 5109 c-473 -48 -916 -222 -1305 -512 -122 -92 -395 -365 -487
-487 -274 -368 -439 -770 -505 -1235 -17 -118 -17 -512 0 -630 66 -465 231
-867 505 -1235 93 -123 365 -395 490 -489 364 -271 769 -437 1232 -503 118
-17 512 -16 635 0 473 65 897 245 1275 540 39 30 138 123 220 206 224 225 345
395 485 681 122 247 200 505 242 800 17 118 17 512 0 630 -66 463 -232 868
-503 1232 -94 125 -366 397 -489 489 -365 273 -752 434 -1195 500 -122 18
-477 26 -600 13z m595 -373 c757 -130 1377 -617 1679 -1321 220 -514 228
-1139 20 -1662 -39 -99 -137 -291 -190 -374 -48 -75 -162 -229 -169 -229 -3 0
-51 55 -107 123 -218 263 -383 386 -618 460 -165 51 -177 52 -965 52 -788 0
-800 -1 -965 -52 -235 -74 -400 -197 -618 -460 -56 -68 -104 -123 -107 -123
-9 0 -139 181 -187 259 -147 242 -241 492 -295 786 -30 162 -33 542 -5 706
166 987 937 1727 1927 1848 113 14 488 6 600 -13z"/>
<path d="M2420 4159 c-109 -13 -241 -53 -356 -109 -448 -218 -699 -703 -619
-1195 76 -469 438 -840 908 -930 112 -21 319 -19 432 4 462 96 814 464 891
931 21 122 13 320 -16 438 -114 464 -503 809 -973 861 -108 12 -159 12 -267 0z"/>
</g>
</svg>
