<svg xmlns="http://www.w3.org/2000/svg" xmlns:xlink="http://www.w3.org/1999/xlink" xml:space="preserve" version="1.1" style="shape-rendering:geometricPrecision;text-rendering:geometricPrecision;image-rendering:optimizeQuality;" viewBox="0 0 847 1058.75" x="0px" y="0px" fill-rule="evenodd" clip-rule="evenodd">
  <g>
    <path fill="#2E8B57" d="M579 677l-9 0c-50,-290 -48,-153 -206,-297l0 -17c9,-4 9,-15 0,-19l0 -7c4,-5 -2,-20 -4,-25 -2,5 -9,20 -5,25l0 7c-8,4 -8,15 0,19l0 17c-157,144 -156,7 -206,297l-8 0 -15 38 468 0 -15 -38zm-368 -2l-17 0 0 -24 17 0 0 24zm52 0l-16 0 0 -24 16 0 0 24zm53 0l-17 0 0 -24 17 0 0 24zm52 0l-16 0 0 -24 16 0 0 24zm53 0l-17 0 0 -24 17 0 0 24zm52 0l-17 0 0 -24 17 0 0 24zm52 0l-16 0 0 -24 16 0 0 24z" />
    <path fill="#2E8B57" d="M705 531l0 -19 -20 -17 -25 22 -26 -22 -19 17 0 19 -33 0 0 60 24 0 0 143 -496 0 0 59c201,0 402,0 604,0l0 -202 23 0 0 -60 -32 0zm-24 194l-43 0 0 -59 6 0 0 -23 16 -16 15 16 0 23 6 0 0 59z" />
    <polygon fill="#2E8B57" points="634,446 615,463 615,500 634,483 660,505 685,483 705,500 705,463 685,446 660,468 " />
    <path fill="#2E8B57" d="M601 392l14 42 0 17 19 -18 26 22 25 -22 20 18 0 -17 13 -42 -13 0 0 -171 13 -42 -36 0 0 -37c0,-11 -8,-20 -18,-22l0 -15c8,-4 8,-15 0,-19l0 -7c4,-5 -3,-20 -4,-25 -2,5 -9,20 -5,25l0 7c-8,4 -8,15 0,19l0 15c-10,2 -18,11 -18,22l0 37 -36 0 14 42 0 171 -14 0zm46 -148l4 0 0 -13 9 -8 8 8 0 13 4 0 0 34 -25 0 0 -34zm0 79l4 0 0 -13 9 -8 8 8 0 13 4 0 0 34 -25 0 0 -34z" />
  </g>
</svg>
