<svg
  xmlns="http://www.w3.org/2000/svg"
  xmlns:xlink="http://www.w3.org/1999/xlink"
  version="1.1"
  x="0px"
  y="0px"
  viewBox="0 0 48 60"
  enable-background="new 0 0 48 48"
  xml:space="preserve"
>
  <path
    fill="#8789A3" 
    d="M46,35c0,4.9624023-4.0371094,9-9,9s-9-4.0375977-9-9s4.0371094-9,9-9S46,30.0375977,46,35z M13,26H9  c-3.859375,0-7,3.1401367-7,7v4c0,3.8598633,3.140625,7,7,7h4c3.859375,0,7-3.1401367,7-7v-4C20,29.1401367,16.859375,26,13,26z   M39,4h-4c-3.859375,0-7,3.1401367-7,7v4c0,3.8598633,3.140625,7,7,7h4c3.859375,0,7-3.1401367,7-7v-4  C46,7.1401367,42.859375,4,39,4z M13,4H9c-3.859375,0-7,3.1401367-7,7v4c0,3.8598633,3.140625,7,7,7h4c3.859375,0,7-3.1401367,7-7  v-4C20,7.1401367,16.859375,4,13,4z"
  />
</svg>
