<svg xmlns="http://www.w3.org/2000/svg" xmlns:xlink="http://www.w3.org/1999/xlink" xml:space="preserve" version="1.1" style="shape-rendering:geometricPrecision;text-rendering:geometricPrecision;image-rendering:optimizeQuality;" viewBox="0 0 50000 62500" x="0px" y="0px" fill-rule="evenodd" clip-rule="evenodd"><defs><style type="text/css">
   
    .fil0 {fill:black}
   
  </style></defs><g><path class="fil0" d="M9973.22 21560.64c0,-1704.93 -1250.76,-3133.88 -2882.31,-3406.39l-593.94 -11082.09 -593.94 11089.1c-1610.61,293.47 -2840.39,1708.44 -2840.39,3399.38l0 2822.94 6910.58 -0.02 0 -2822.92zm21664.59 11417.49l0 -4213.44c0,-1704.88 -2592.31,-1704.88 -2592.31,0l-0.02 4213.44 2592.33 0zm-677.79 -674.3l-1236.76 0 0 -3539.14c0,-813.58 1236.79,-813.58 1236.79,0l-0.03 3539.14zm12853.42 -2525.96l-3.49 -1156.42c0,-441.13 -670.78,-441.13 -670.78,0l3.48 1156.42c0,438.53 670.79,441.69 670.79,0zm-23268.19 3200.26l0 -4213.44c0,-1704.88 -2592.31,-1704.88 -2592.31,0l-0.05 4213.44 2592.36 0zm-677.79 -674.3l-1236.78 0 0 -3539.14c0,-813.56 1236.78,-813.58 1236.78,0l0 3539.14zm20155.3 2557.41c-380.81,-356.35 -890.9,-572.98 -1449.9,-572.98l-2718.13 0 0 -7948.21 461.19 0c1731.17,0 1731.15,-2634.28 0,-2634.28l-408.77 0c-611.41,-5086.86 -4695.56,-9104.64 -9813.88,-9544.86l0 -2162.63c973.71,-653.59 1102.45,-2042.96 262.04,-2857.86 772.01,-227.66 1661.56,-826.24 2071.8,-1544.21 308.13,-477.62 -130.99,-967.06 -646.34,-600.92 -1759.46,1319.95 -4418.55,-369.56 -3801.15,-2655.24 144,-521.98 455.41,-995.05 914.39,-1332.87 280.24,-206.29 822.44,-345.69 710.16,-794.81 -96.68,-386.7 -571.57,-392.34 -1061.28,-275.5 -429.05,102.36 -869.52,298.75 -1076.9,415.23 -890.89,506.6 -1488.32,1327.61 -1739.87,2242.98 -497.14,1809.1 444.12,3717.07 2183.59,4416.06 -973.66,774.11 -921.01,2290.44 118.79,2983.63l0 2162.62c-5104.35,447.23 -9192.02,4461.52 -9799.92,9551.89l-408.77 0c-1731.17,0 -1731.14,2634.28 0,2634.28l373.83 -0.02 0 7951.73 -2714.62 0c-583.44,0 -1117.99,237.56 -1502.31,621.88l0 -9205.98 -6914.07 0 0 22415.75c14622.41,0 29244.8,0 43867.21,0l0 -22419.24 -6910.58 0 0 9153.56 3.49 0zm-30723.83 12643.8l-5558.52 0 0 -21175.48 5562.03 0 -3.51 21175.48zm13091 -42728.28c206.13,-747.65 695.26,-1418.46 1425.44,-1834.21 101.32,-55.91 202.64,-108.3 307.45,-153.71 -384.32,384.32 -649.85,859.46 -789.6,1369.55 -641.59,2324.5 1496.25,4429.83 3776.72,3871.05 -741.8,542.08 -1701.25,720.82 -2592.35,475.14 -1615.97,-433.93 -2571.87,-2116.55 -2127.66,-3727.82zm-8573.61 20888.99c-839.87,0 -839.92,-1278.7 0,-1278.7l974.75 0c66.37,-387.81 118.79,-782.6 188.66,-1166.9 384.32,-2162.62 1439.42,-4091.15 2948.71,-5555.03 1904.38,-1853.35 4159.72,-2727.37 6788.3,-2871.84l-3.49 -3189.76c-1370.81,-711.84 -845.86,-2305.87 352.86,-2305.87 1195.87,0 1726.43,1592.62 352.87,2305.87l0 3193.27c4856.72,266.92 8819.79,3496.44 9719.53,8339.54 41.93,220.11 136.27,988.73 153.72,1254.25l1023.69 -0.04c839.87,0 839.92,1278.7 0,1278.7l-22499.6 -3.49zm21360.63 674.3l0 7951.73 -20309.01 0 0 -7951.73 20309.01 0zm-10655.85 21091.61l-2099.74 0c-108.63,0 -199.15,-91.49 -199.15,-199.15l0 -5450.22c0,-1340.13 999.22,-2489.25 2323.32,-2676.18l-24.43 8325.55zm3105.91 -199.13c0,108.63 -91.48,199.15 -199.15,199.15l-2232.46 -0.02 10.49 -3245.67 370.31 0c443.88,0 443.88,-670.78 0,-670.78l-370.33 0 13.98 -4416.08c1362.08,152.18 2407.16,1312.42 2407.16,2686.67l0 5446.73zm12395.75 216.6l-11749.41 0c17.47,-69.86 27.94,-143.24 27.94,-216.6l0 -5450.22c0,-1858.38 -1520.04,-3378.42 -3378.42,-3378.42 -1858.38,0 -3378.42,1520.04 -3378.42,3378.42l0 5450.22c0,73.38 10.49,146.74 27.94,216.6l-11550.26 0 0 -11029.7c0,-800.07 656.82,-1456.87 1456.87,-1456.87 9032.46,0 18064.89,0 27097.35,0 758.15,0 1387.01,586.94 1449.9,1331.1l-3.49 11155.47zm674.29 -21123.06l5562.01 0 0 21178.97 -5555.03 0 0 -11085.58c0,-52.42 -3.49,-101.32 -6.98,-153.72l0 -9939.67zm-14607.27 6652.06l0 -4213.44c0,-1704.88 -2592.31,-1704.88 -2592.31,0l-0.04 4213.44 2592.35 0zm-674.29 -674.3l-1236.79 0 0 -3539.14c0,-813.58 1236.79,-813.58 1236.79,0l0 3539.14zm-18712.39 -2525.96l-3.49 -1156.42c0,-441.13 -670.78,-441.13 -670.78,0l3.49 1156.42c-0.05,438.5 670.78,441.71 670.78,0zm37309.49 -11630.62l-660.31 -11075.09 -524.06 11096.08c-1617.42,311.97 -2798.46,1745.03 -2798.46,3395.89l0 2822.94 6910.58 -0.02 0 -2822.94c-7,-1722.4 -1278.71,-3158.31 -2927.75,-3416.86zm2246.47 5558.52l-5562.01 0 0 -2145.15c0,-1527.82 1253.2,-2781.02 2781.02,-2781.02 1530.25,0 2781.02,1250.77 2781.02,2781.02l-0.03 2145.15zm-36960.13 0l-5558.52 0 0 -2145.15c0,-1530.25 1250.76,-2781.02 2781.01,-2781.02 1530.25,0 2781.02,1250.77 2781.02,2781.02l0 2145.15 -3.51 0z"/></g><text x="0" y="50015" fill="#000000" font-size="5px" font-weight="bold" font-family="'Helvetica Neue', Helvetica, Arial-Unicode, Arial, Sans-serif">Created by Oleksandr Panasovskyi</text><text x="0" y="50020" fill="#000000" font-size="5px" font-weight="bold" font-family="'Helvetica Neue', Helvetica, Arial-Unicode, Arial, Sans-serif">from the Noun Project</text></svg>