<svg xmlns="http://www.w3.org/2000/svg" xmlns:xlink="http://www.w3.org/1999/xlink" version="1.1" x="0px" y="0px" viewBox="0 0 24 30" style="enable-background:new 0 0 24 24;" xml:space="preserve"><g><path d="M0.574,19.077v1.135v2.942h2.939V6.476H0.574V19.077z M1.619,9.157c0-0.234,0.19-0.425,0.425-0.425   s0.425,0.191,0.425,0.425v1.62c0,0.234-0.19,0.425-0.425,0.425s-0.425-0.191-0.425-0.425V9.157z M1.619,15.645   c0-0.234,0.19-0.425,0.425-0.425s0.425,0.191,0.425,0.425v1.622c0,0.234-0.19,0.425-0.425,0.425s-0.425-0.191-0.425-0.425V15.645z"/><path d="M12,15.23c-0.223,0.116-0.668,0.376-1.106,0.795c-0.803,0.766-1.209,1.683-1.209,2.724v4.406h4.631v-4.407   C14.316,16.597,12.53,15.506,12,15.23z"/><rect x="0.027" y="4.983" width="4.034" height="0.748"/><path d="M7.292,18.251c0-0.804-0.603-1.255-0.887-1.423c-0.286,0.168-0.887,0.617-0.887,1.423v1.867h1.774V18.251z"/><path d="M4.258,23.155h4.681v-4.406c0-1.245,0.505-2.38,1.461-3.283c0.712-0.673,1.424-0.98,1.454-0.993   c0.093-0.04,0.199-0.04,0.292,0c0.03,0.013,0.742,0.32,1.454,0.993c0.956,0.903,1.461,2.038,1.461,3.283v4.406h4.681v-9.5H4.258   V23.155z M15.963,18.251c0-1.535,1.426-2.16,1.486-2.186c0.093-0.04,0.199-0.04,0.292,0c0.061,0.026,1.486,0.651,1.486,2.186v2.239   c0,0.206-0.167,0.373-0.373,0.373h-2.519c-0.206,0-0.373-0.167-0.373-0.373V18.251z M4.773,18.251c0-1.535,1.426-2.16,1.486-2.186   c0.093-0.04,0.199-0.04,0.292,0c0.061,0.026,1.486,0.651,1.486,2.186v2.239c0,0.206-0.167,0.373-0.373,0.373H5.146   c-0.206,0-0.373-0.167-0.373-0.373V18.251z"/><path d="M3.513,3.764c0-0.661-0.442-1.215-1.044-1.399V1.728c0-0.234-0.19-0.425-0.425-0.425s-0.425,0.19-0.425,0.425v0.637   C1.017,2.548,0.574,3.102,0.574,3.764v0.474h2.939V3.764z"/><path d="M18.482,18.251c0-0.804-0.603-1.255-0.887-1.423c-0.286,0.168-0.887,0.617-0.887,1.423v1.867h1.774V18.251z"/><path d="M16.367,8.938c0.562-1.154,0.162-2.443-1.056-3.333l-2.887-2.11V3.16c0.223-0.05,0.436-0.136,0.607-0.296   c0.172-0.16,0.182-0.429,0.022-0.601c-0.16-0.172-0.429-0.18-0.601-0.022c-0.088,0.082-0.207,0.123-0.324,0.121   c-0.12-0.004-0.232-0.055-0.314-0.143c-0.082-0.088-0.126-0.203-0.121-0.324c0.004-0.12,0.055-0.232,0.143-0.314   c0.172-0.16,0.182-0.428,0.022-0.601c-0.159-0.171-0.428-0.182-0.601-0.022c-0.255,0.237-0.401,0.559-0.414,0.906   c-0.012,0.348,0.112,0.679,0.348,0.933c0.111,0.119,0.244,0.21,0.386,0.279c0,0.007-0.004,0.013-0.004,0.021v0.397l-0.373,0.273   L8.689,5.605c-1.218,0.89-1.617,2.179-1.056,3.333H16.367z"/><path d="M6.396,10.46h11.208c0.137-0.06,0.233-0.196,0.233-0.355c0-0.215-0.175-0.389-0.389-0.389h-0.847c0,0-0.001,0-0.001,0   c0,0-0.001,0-0.001,0H6.552c-0.215,0-0.389,0.175-0.389,0.389C6.163,10.264,6.259,10.4,6.396,10.46z"/><path d="M20.487,23.155h2.939V6.476h-2.939V23.155z M21.532,9.157c0-0.234,0.19-0.425,0.425-0.425s0.425,0.191,0.425,0.425v1.62   c0,0.234-0.19,0.425-0.425,0.425s-0.425-0.191-0.425-0.425V9.157z M21.532,15.645c0-0.234,0.19-0.425,0.425-0.425   s0.425,0.191,0.425,0.425v1.622c0,0.234-0.19,0.425-0.425,0.425s-0.425-0.191-0.425-0.425V15.645z"/><rect x="19.939" y="4.983" width="4.034" height="0.748"/><path d="M14.309,11.206h-1.438H6.163H4.258h0v1.598h15.484v-1.598h-1.905H14.309z M5.389,12.424c-0.233,0-0.422-0.189-0.422-0.422   s0.189-0.422,0.422-0.422S5.81,11.77,5.81,12.003S5.622,12.424,5.389,12.424z M7.592,12.424c-0.233,0-0.422-0.189-0.422-0.422   s0.189-0.422,0.422-0.422c0.233,0,0.422,0.189,0.422,0.422S7.825,12.424,7.592,12.424z M9.796,12.424   c-0.233,0-0.422-0.189-0.422-0.422s0.189-0.422,0.422-0.422c0.233,0,0.422,0.189,0.422,0.422S10.029,12.424,9.796,12.424z    M12,12.424c-0.233,0-0.422-0.189-0.422-0.422s0.189-0.422,0.422-0.422c0.233,0,0.422,0.189,0.422,0.422S12.233,12.424,12,12.424z    M14.204,12.424c-0.233,0-0.422-0.189-0.422-0.422s0.189-0.422,0.422-0.422c0.233,0,0.422,0.189,0.422,0.422   S14.437,12.424,14.204,12.424z M16.408,12.424c-0.233,0-0.422-0.189-0.422-0.422s0.189-0.422,0.422-0.422   c0.233,0,0.422,0.189,0.422,0.422S16.641,12.424,16.408,12.424z M18.611,11.581c0.233,0,0.422,0.189,0.422,0.422   s-0.189,0.422-0.422,0.422c-0.233,0-0.422-0.189-0.422-0.422S18.379,11.581,18.611,11.581z"/><path d="M23.426,3.764c0-0.661-0.442-1.216-1.045-1.399V1.728c0-0.234-0.19-0.425-0.425-0.425s-0.425,0.19-0.425,0.425v0.637   c-0.602,0.184-1.044,0.738-1.044,1.399v0.474h2.939V3.764z"/></g><text x="0" y="39" fill="#000000" font-size="5px" font-weight="bold" font-family="'Helvetica Neue', Helvetica, Arial-Unicode, Arial, Sans-serif">Created by myiconfinder</text><text x="0" y="44" fill="#000000" font-size="5px" font-weight="bold" font-family="'Helvetica Neue', Helvetica, Arial-Unicode, Arial, Sans-serif">from the Noun Project</text></svg>