<?xml version="1.0" encoding="UTF-8"?>
<!DOCTYPE svg PUBLIC "-//W3C//DTD SVG 1.1//EN" "http://www.w3.org/Graphics/SVG/1.1/DTD/svg11.dtd">
<svg xmlns="http://www.w3.org/2000/svg" version="1.1" width="512px" height="512px" style="shape-rendering:geometricPrecision; text-rendering:geometricPrecision; image-rendering:optimizeQuality; fill-rule:evenodd; clip-rule:evenodd" xmlns:xlink="http://www.w3.org/1999/xlink">
<g><path style="opacity:0.98" fill="#672cbc" d="M 159.5,116.5 C 203.255,113.276 243.255,123.776 279.5,148C 324.062,183.553 361.895,225.053 393,272.5C 393.49,273.793 393.657,275.127 393.5,276.5C 391.217,276.608 389.217,277.441 387.5,279C 372.099,294.297 360.599,312.13 353,332.5C 345.177,330.567 337.343,328.567 329.5,326.5C 323.245,314.99 317.245,303.323 311.5,291.5C 314.054,289.292 316.554,286.959 319,284.5C 321.967,278.226 320.467,273.392 314.5,270C 311.036,269.183 307.702,269.517 304.5,271C 299.578,274.378 294.745,277.878 290,281.5C 288.517,284.702 288.183,288.036 289,291.5C 295.106,303.378 300.939,315.378 306.5,327.5C 297.243,334.379 288.077,341.379 279,348.5C 263.835,329.668 249.835,310.001 237,289.5C 235.081,279.923 237.914,272.09 245.5,266C 258.932,256.867 272.098,247.367 285,237.5C 288.724,226.57 284.891,221.403 273.5,222C 262.333,229.833 251.167,237.667 240,245.5C 229.936,229.763 220.269,213.763 211,197.5C 206.236,192.842 201.07,192.342 195.5,196C 192.264,199.844 191.764,204.01 194,208.5C 204.064,224.237 213.731,240.237 223,256.5C 223.667,258.167 223.667,259.833 223,261.5C 221.171,263.156 219.837,265.156 219,267.5C 214.489,277.857 214.489,288.19 219,298.5C 222.497,305.498 226.497,312.165 231,318.5C 242.692,333.358 254.192,348.358 265.5,363.5C 259.316,382.831 245.983,392.998 225.5,394C 204.742,394.464 184.242,392.297 164,387.5C 138.184,381.588 112.351,375.754 86.5,370C 85.9032,368.938 85.5698,367.772 85.5,366.5C 88.9348,347.892 91.9348,329.225 94.5,310.5C 121.862,316.473 149.195,322.639 176.5,329C 184.739,330.883 189.739,327.716 191.5,319.5C 190.903,315.068 188.57,311.901 184.5,310C 167.805,306.461 151.138,302.794 134.5,299C 124.378,297.196 116.544,292.029 111,283.5C 102.317,268.466 94.9833,252.8 89,236.5C 77.4647,198.816 85.298,165.982 112.5,138C 126.242,126.46 141.909,119.293 159.5,116.5 Z"/></g>
<g><path style="opacity:0.958" fill="#672cbc" d="M 443.5,288.5 C 477.76,288.933 496.427,306.099 499.5,340C 499.334,359.13 491.168,373.63 475,383.5C 467.834,369.832 461.168,355.832 455,341.5C 447.263,324.698 440.096,307.698 433.5,290.5C 437.04,290.247 440.373,289.581 443.5,288.5 Z"/></g>
<g><path style="opacity:0.969" fill="#672cbc" d="M 400.5,293.5 C 404.5,293.5 408.5,293.5 412.5,293.5C 426.265,326.369 440.599,359.036 455.5,391.5C 453.118,393.071 450.451,393.904 447.5,394C 438.438,394.881 429.438,394.548 420.5,393C 406.91,387.137 392.91,382.47 378.5,379C 374.612,376.778 371.779,373.612 370,369.5C 367.449,357.876 368.449,346.543 373,335.5C 379.429,319.624 388.596,305.624 400.5,293.5 Z"/></g>
<g><path style="opacity:0.964" fill="#672cbc" d="M 32.5,298.5 C 37.5111,298.334 42.5111,298.501 47.5,299C 56.5556,301.014 65.5556,303.181 74.5,305.5C 71.8154,325.607 68.4821,345.607 64.5,365.5C 60.9258,364.687 57.4258,363.687 54,362.5C 47.2002,372.599 40.0335,382.433 32.5,392C 24.7807,396.014 17.9474,394.848 12,388.5C 11.1376,386.913 10.4709,385.246 10,383.5C 9.33333,364.167 9.33333,344.833 10,325.5C 12.6341,312.372 20.1341,303.372 32.5,298.5 Z"/></g>
<g><path style="opacity:0.939" fill="#672cbc" d="M 315.5,345.5 C 317.947,350.876 321.28,355.709 325.5,360C 337.33,368.418 349.663,376.085 362.5,383C 365.254,385.754 366.254,388.92 365.5,392.5C 364.624,393.251 363.624,393.751 362.5,394C 355,394.167 347.5,394.333 340,394.5C 331.735,394.637 323.568,394.137 315.5,393C 307.123,383.625 299.123,373.958 291.5,364C 299.685,357.97 307.685,351.803 315.5,345.5 Z"/></g>
</svg>
