<?xml version="1.0" encoding="UTF-8"?>
<!DOCTYPE svg PUBLIC "-//W3C//DTD SVG 1.1//EN" "http://www.w3.org/Graphics/SVG/1.1/DTD/svg11.dtd">
<svg xmlns="http://www.w3.org/2000/svg" version="1.1" width="100px" height="100px" style="shape-rendering:geometricPrecision; text-rendering:geometricPrecision; image-rendering:optimizeQuality; fill-rule:evenodd; clip-rule:evenodd" xmlns:xlink="http://www.w3.org/1999/xlink">
<g><path style="opacity:0.758" fill="#ebb6d3" d="M 69.5,29.5 C 68.2022,30.1157 67.2022,30.1157 66.5,29.5C 66.607,27.0968 65.607,25.2635 63.5,24C 60.1667,22.6667 56.8333,21.3333 53.5,20C 51.578,18.5804 50.2446,16.7471 49.5,14.5C 48.3709,17.4628 46.3709,19.6294 43.5,21C 44.3366,22.0113 44.67,23.1779 44.5,24.5C 41.3855,24.3939 38.7188,25.3939 36.5,27.5C 35.1779,27.67 34.0113,27.3366 33,26.5C 32.6667,27.5 32.3333,28.5 32,29.5C 31.3292,28.7476 30.4959,28.4142 29.5,28.5C 29.5494,25.9009 30.5494,23.7342 32.5,22C 36.6838,20.1626 40.8505,18.3293 45,16.5C 45.3947,14.8214 45.228,13.1547 44.5,11.5C 46.3534,8.77409 47.5201,5.77409 48,2.5C 49.0113,1.66337 50.1779,1.33003 51.5,1.5C 51.5683,5.10542 52.5683,8.43876 54.5,11.5C 53.772,13.1547 53.6053,14.8214 54,16.5C 58.1495,18.3293 62.3162,20.1626 66.5,22C 68.747,23.995 69.747,26.495 69.5,29.5 Z M 66.5,29.5 C 56.1613,29.6665 45.828,29.4998 35.5,29C 36.056,28.6174 36.3893,28.1174 36.5,27.5C 38.7188,25.3939 41.3855,24.3939 44.5,24.5C 44.67,23.1779 44.3366,22.0113 43.5,21C 46.3709,19.6294 48.3709,17.4628 49.5,14.5C 50.2446,16.7471 51.578,18.5804 53.5,20C 56.8333,21.3333 60.1667,22.6667 63.5,24C 65.607,25.2635 66.607,27.0968 66.5,29.5 Z"/></g>
<g><path style="opacity:0.996" fill="#daa2dc" d="M 36.5,27.5 C 36.3893,28.1174 36.056,28.6174 35.5,29C 45.828,29.4998 56.1613,29.6665 66.5,29.5C 67.2022,30.1157 68.2022,30.1157 69.5,29.5C 71.8444,29.6748 73.511,30.8415 74.5,33C 74.2716,33.3988 73.9382,33.5654 73.5,33.5C 72.391,33.4431 71.391,33.1098 70.5,32.5C 56.5,32.5 42.5,32.5 28.5,32.5C 27.609,33.1098 26.609,33.4431 25.5,33.5C 24.4502,33.0954 24.4502,32.4288 25.5,31.5C 26.9014,30.4793 28.2347,29.4793 29.5,28.5C 30.4959,28.4142 31.3292,28.7476 32,29.5C 32.3333,28.5 32.6667,27.5 33,26.5C 34.0113,27.3366 35.1779,27.67 36.5,27.5 Z"/></g>
<g><path style="opacity:0.846" fill="#ce96e1" d="M 28.5,32.5 C 42.5,33.8333 56.5,33.8333 70.5,32.5C 71.391,33.1098 72.391,33.4431 73.5,33.5C 73.3059,35.9118 71.9726,36.9118 69.5,36.5C 69.5,38.8333 69.5,41.1667 69.5,43.5C 68.1667,43.5 66.8333,43.5 65.5,43.5C 66.3686,41.283 66.702,38.9496 66.5,36.5C 64.5,36.5 62.5,36.5 60.5,36.5C 60.5,38.8333 60.5,41.1667 60.5,43.5C 59.5,43.5 58.5,43.5 57.5,43.5C 57.5,41.1667 57.5,38.8333 57.5,36.5C 52.1667,36.5 46.8333,36.5 41.5,36.5C 41.5,38.1667 41.5,39.8333 41.5,41.5C 40.609,42.1098 39.609,42.4431 38.5,42.5C 38.5,40.5 38.5,38.5 38.5,36.5C 36.5,36.5 34.5,36.5 32.5,36.5C 32.298,38.9496 32.6314,41.283 33.5,43.5C 32.1667,43.5 30.8333,43.5 29.5,43.5C 29.5,41.1667 29.5,38.8333 29.5,36.5C 27.0274,36.9118 25.6941,35.9118 25.5,33.5C 26.609,33.4431 27.609,33.1098 28.5,32.5 Z"/></g>
<g><path style="opacity:0.717" fill="#bb81e8" d="M 57.5,43.5 C 58.5,43.5 59.5,43.5 60.5,43.5C 60.2322,45.099 60.5655,46.4324 61.5,47.5C 61.189,48.4778 60.5223,49.1445 59.5,49.5C 57.8717,49.4214 56.2051,49.0881 54.5,48.5C 50.6724,44.2933 47.3391,44.6266 44.5,49.5C 41.393,48.9241 38.393,48.9241 35.5,49.5C 32.9165,45.5566 31.9165,46.2233 32.5,51.5C 31.609,52.1098 30.609,52.4431 29.5,52.5C 29.5,49.5 29.5,46.5 29.5,43.5C 30.8333,43.5 32.1667,43.5 33.5,43.5C 35.7079,44.023 37.2079,45.3563 38,47.5C 38.4935,45.8659 38.6602,44.1992 38.5,42.5C 39.609,42.4431 40.609,42.1098 41.5,41.5C 41.3398,43.1992 41.5065,44.8659 42,46.5C 44.448,44.369 46.948,42.369 49.5,40.5C 52.052,42.369 54.552,44.369 57,46.5C 57.4828,45.552 57.6495,44.552 57.5,43.5 Z"/></g>
<g><path style="opacity:0.657" fill="#b175ec" d="M 44.5,49.5 C 44.5,51.1667 44.5,52.8333 44.5,54.5C 42.5,54.5 40.5,54.5 38.5,54.5C 37.3695,53.7984 37.0361,55.1317 37.5,58.5C 36.391,58.4431 35.391,58.1098 34.5,57.5C 34.5751,54.7938 34.9084,52.1272 35.5,49.5C 38.393,48.9241 41.393,48.9241 44.5,49.5 Z"/></g>
<g><path style="opacity:0.699" fill="#b175ed" d="M 65.5,43.5 C 66.8333,43.5 68.1667,43.5 69.5,43.5C 69.5,50.1667 69.5,56.8333 69.5,63.5C 68.7784,63.0825 68.2784,62.4158 68,61.5C 67.7216,62.4158 67.2216,63.0825 66.5,63.5C 66.6661,57.8236 66.4994,52.1569 66,46.5C 64.5362,47.459 63.7028,48.7923 63.5,50.5C 64.2692,53.1147 64.6025,55.7814 64.5,58.5C 63.5,58.5 62.5,58.5 61.5,58.5C 61.1667,49.1667 60.8333,49.1667 60.5,58.5C 58.8762,58.3601 57.7096,59.0267 57,60.5C 56.2917,59.6195 55.4584,58.9528 54.5,58.5C 54.5,55.1667 54.5,51.8333 54.5,48.5C 56.2051,49.0881 57.8717,49.4214 59.5,49.5C 60.5223,49.1445 61.189,48.4778 61.5,47.5C 61.894,45.2901 63.2273,43.9568 65.5,43.5 Z"/></g>
<g><path style="opacity:0.815" fill="#a164f4" d="M 32.5,51.5 C 32.1694,58.8635 32.5027,66.1968 33.5,73.5C 34.4948,68.2079 34.8282,62.8746 34.5,57.5C 35.391,58.1098 36.391,58.4431 37.5,58.5C 37.3341,63.5111 37.5007,68.5111 38,73.5C 38.4995,67.1754 38.6662,60.8421 38.5,54.5C 40.5,54.5 42.5,54.5 44.5,54.5C 44.5,60.8333 44.5,67.1667 44.5,73.5C 47.8333,73.5 51.1667,73.5 54.5,73.5C 54.5,68.5 54.5,63.5 54.5,58.5C 55.4584,58.9528 56.2917,59.6195 57,60.5C 57.7096,59.0267 58.8762,58.3601 60.5,58.5C 60.8333,78.5 61.1667,78.5 61.5,58.5C 62.5,58.5 63.5,58.5 64.5,58.5C 64.1725,63.544 64.5059,68.544 65.5,73.5C 66.487,70.2317 66.8204,66.8984 66.5,63.5C 67.2216,63.0825 67.7216,62.4158 68,61.5C 68.2784,62.4158 68.7784,63.0825 69.5,63.5C 69.5,66.8333 69.5,70.1667 69.5,73.5C 74.1584,73.653 75.1584,75.4863 72.5,79C 71.552,79.4828 70.552,79.6495 69.5,79.5C 70.1776,83.2727 68.8442,86.106 65.5,88C 62.326,89.7248 58.9927,91.0581 55.5,92C 51.5,99.3333 47.5,99.3333 43.5,92C 37.7259,91.0379 33.2259,88.2046 30,83.5C 29.51,82.2068 29.3433,80.8734 29.5,79.5C 25.7751,79.4628 24.4418,77.7962 25.5,74.5C 26.6888,73.5713 28.0222,73.238 29.5,73.5C 29.5,66.5 29.5,59.5 29.5,52.5C 30.609,52.4431 31.609,52.1098 32.5,51.5 Z M 32.5,79.5 C 44.1714,79.3335 55.8381,79.5001 67.5,80C 66.87,81.892 65.87,83.5587 64.5,85C 60.5811,86.8618 56.5811,88.5285 52.5,90C 51.624,91.586 50.624,93.086 49.5,94.5C 48.376,93.086 47.376,91.586 46.5,90C 42.4189,88.5285 38.4189,86.8618 34.5,85C 33.1387,83.4157 32.472,81.5824 32.5,79.5 Z"/></g>
</svg>
