<svg xmlns="http://www.w3.org/2000/svg" viewBox="0 0 24 30" x="0px" y="0px"><title>search, magnifying glass, magnifier, find, lens, clarity, ui, interface, zoom, loupe,</title><g data-name="Layer 2"><path d="M12.53213,1.37019a8.73895,8.73895,0,0,0-5.51,13.89332.24285.24285,0,0,1-.02024.32063L1.293,21.293A.99989.99989,0,1,0,2.707,22.707L8.41592,16.9982a.24284.24284,0,0,1,.32063-.02024A8.74886,8.74886,0,1,0,12.53213,1.37019ZM14,16a6,6,0,1,1,6-6A6.00672,6.00672,0,0,1,14,16Z" fill="#8789A3"/><circle cx="14" cy="10" r="4.5" fill="#8789A3"/></g><text x="0" y="39" fill="#000000" font-size="5px" font-weight="bold" font-family="'Helvetica Neue', Helvetica, Arial-Unicode, Arial, Sans-serif">Created by Nursila</text><text x="0" y="44" fill="#000000" font-size="5px" font-weight="bold" font-family="'Helvetica Neue', Helvetica, Arial-Unicode, Arial, Sans-serif">from the Noun Project</text></svg>