<?xml version="1.0" encoding="UTF-8"?>
<!DOCTYPE svg PUBLIC "-//W3C//DTD SVG 1.1//EN" "http://www.w3.org/Graphics/SVG/1.1/DTD/svg11.dtd">
<svg xmlns="http://www.w3.org/2000/svg" version="1.1" width="512px" height="512px" style="shape-rendering:geometricPrecision; text-rendering:geometricPrecision; image-rendering:optimizeQuality; fill-rule:evenodd; clip-rule:evenodd" xmlns:xlink="http://www.w3.org/1999/xlink">
<g><path style="opacity:0.96" fill="#020201" d="M 301.5,179.5 C 298.66,182.143 295.327,182.976 291.5,182C 273.381,168.551 254.714,155.884 235.5,144C 195.401,129.922 163.568,140.422 140,175.5C 131.982,188.92 129.649,203.253 133,218.5C 144,250.167 155,281.833 166,313.5C 166.95,321.382 163.45,324.715 155.5,323.5C 144.114,322.421 132.781,320.921 121.5,319C 118.108,316.715 116.441,313.548 116.5,309.5C 117.718,305.62 120.385,303.62 124.5,303.5C 131.817,304.688 139.15,305.688 146.5,306.5C 137.444,279.498 128.277,252.498 119,225.5C 112.111,191.123 122.277,162.957 149.5,141C 182.589,118.634 216.922,116.634 252.5,135C 269.281,146.781 285.781,158.947 302,171.5C 302.722,174.261 302.555,176.927 301.5,179.5 Z"/></g>
<g><path style="opacity:1" fill="#DF98FA" d="M 301.5,179.5 C 306.833,183.167 312.167,186.833 317.5,190.5C 314.458,195.505 315.458,199.672 320.5,203C 338.833,216 357.167,229 375.5,242C 381.699,246.912 386.032,253.079 388.5,260.5C 381.867,268.409 375.7,276.743 370,285.5C 355.394,302.145 337.561,306.978 316.5,300C 312.127,298.287 308.293,295.787 305,292.5C 304.601,292.728 304.435,293.062 304.5,293.5C 303.172,292.09 303.505,290.924 305.5,290C 316.5,286.333 327.5,282.667 338.5,279C 343.689,276.087 344.856,271.92 342,266.5C 340.261,265.106 338.261,264.439 336,264.5C 321.126,269.125 306.292,273.958 291.5,279C 286.857,281.072 285.357,284.572 287,289.5C 293.03,305.924 298.864,322.424 304.5,339C 304.355,339.772 304.022,340.439 303.5,341C 294.653,344.671 285.653,347.837 276.5,350.5C 269.02,330.198 261.52,309.865 254,289.5C 251.909,276.849 256.409,267.349 267.5,261C 286.207,253.264 304.874,245.431 323.5,237.5C 327.702,232.9 327.369,228.733 322.5,225C 319.072,224.299 315.738,224.632 312.5,226C 296.5,232.667 280.5,239.333 264.5,246C 259.639,248.593 254.972,251.427 250.5,254.5C 247.064,251.448 243.064,249.448 238.5,248.5C 233.59,249.366 230.09,252.033 228,256.5C 227.222,261.584 227.389,266.584 228.5,271.5C 225.039,271.146 222.539,272.479 221,275.5C 220.832,300.67 220.332,325.67 219.5,350.5C 219.631,349.761 219.464,349.094 219,348.5C 209.968,355.509 199.801,358.009 188.5,356C 151.175,350.723 113.842,345.557 76.5,340.5C 77.5085,331.449 78.8419,322.449 80.5,313.5C 84.185,313.895 87.8517,314.062 91.5,314C 94.3135,312.506 96.3135,310.34 97.5,307.5C 103.812,308.354 110.145,309.021 116.5,309.5C 116.441,313.548 118.108,316.715 121.5,319C 132.781,320.921 144.114,322.421 155.5,323.5C 163.45,324.715 166.95,321.382 166,313.5C 155,281.833 144,250.167 133,218.5C 129.649,203.253 131.982,188.92 140,175.5C 163.568,140.422 195.401,129.922 235.5,144C 254.714,155.884 273.381,168.551 291.5,182C 295.327,182.976 298.66,182.143 301.5,179.5 Z"/></g>
<g><path style="opacity:0.976" fill="#010100" d="M 511.5,320.5 C 511.5,327.5 511.5,334.5 511.5,341.5C 508.705,352.921 503.372,363.087 495.5,372C 499.167,372.333 502.833,372.667 506.5,373C 508.323,373.997 509.99,375.164 511.5,376.5C 511.5,379.167 511.5,381.833 511.5,384.5C 510.684,386.144 509.35,387.31 507.5,388C 339.5,388.667 171.5,388.667 3.5,388C 1.64977,387.31 0.316435,386.144 -0.5,384.5C -0.5,381.833 -0.5,379.167 -0.5,376.5C 0.833333,376.167 0.833333,375.833 -0.5,375.5C -0.5,371.167 -0.5,366.833 -0.5,362.5C 3.45662,345.661 7.28996,328.661 11,311.5C 16.2574,298.376 25.9241,291.709 40,291.5C 57.1992,293.727 74.3658,296.227 91.5,299C 95.3404,300.508 97.3404,303.342 97.5,307.5C 96.3135,310.34 94.3135,312.506 91.5,314C 87.8517,314.062 84.185,313.895 80.5,313.5C 78.8419,322.449 77.5085,331.449 76.5,340.5C 75.1066,346.038 74.4399,351.705 74.5,357.5C 114.137,363.02 153.804,368.353 193.5,373.5C 207.824,372.173 216.491,364.506 219.5,350.5C 220.332,325.67 220.832,300.67 221,275.5C 222.539,272.479 225.039,271.146 228.5,271.5C 232.109,272.974 235.443,274.974 238.5,277.5C 240.678,268.808 244.678,261.142 250.5,254.5C 254.972,251.427 259.639,248.593 264.5,246C 280.5,239.333 296.5,232.667 312.5,226C 315.738,224.632 319.072,224.299 322.5,225C 327.369,228.733 327.702,232.9 323.5,237.5C 304.874,245.431 286.207,253.264 267.5,261C 256.409,267.349 251.909,276.849 254,289.5C 261.52,309.865 269.02,330.198 276.5,350.5C 285.653,347.837 294.653,344.671 303.5,341C 304.022,340.439 304.355,339.772 304.5,339C 298.864,322.424 293.03,305.924 287,289.5C 285.357,284.572 286.857,281.072 291.5,279C 306.292,273.958 321.126,269.125 336,264.5C 338.261,264.439 340.261,265.106 342,266.5C 344.856,271.92 343.689,276.087 338.5,279C 327.5,282.667 316.5,286.333 305.5,290C 303.505,290.924 303.172,292.09 304.5,293.5C 308.869,306.773 313.536,319.94 318.5,333C 336.287,339.575 351.454,335.742 364,321.5C 370.667,312.167 377.333,302.833 384,293.5C 390.501,283.097 392.001,272.097 388.5,260.5C 386.032,253.079 381.699,246.912 375.5,242C 357.167,229 338.833,216 320.5,203C 315.458,199.672 314.458,195.505 317.5,190.5C 320.629,187.114 324.295,186.614 328.5,189C 347.324,202.912 366.324,216.578 385.5,230C 399.346,241.192 406.012,255.692 405.5,273.5C 424.503,273.333 443.503,273.5 462.5,274C 488.464,279.467 504.798,294.967 511.5,320.5 Z M 235.5,294.5 C 236.885,295.614 238.385,296.614 240,297.5C 249.446,322.509 259.28,347.342 269.5,372C 255.5,372.667 241.5,372.667 227.5,372C 231.558,366.498 234.058,360.332 235,353.5C 235.5,333.836 235.667,314.169 235.5,294.5 Z M 365.5,340.5 C 366.586,340.62 367.253,341.287 367.5,342.5C 369.637,354.119 374.97,363.952 383.5,372C 377.833,372.667 372.167,372.667 366.5,372C 368.666,360.999 364.666,352.999 354.5,348C 358.58,345.971 362.246,343.471 365.5,340.5 Z M 49.5,357.5 C 52.1272,358.092 54.7938,358.425 57.5,358.5C 56.0413,367.874 60.0413,372.374 69.5,372C 59.8161,372.832 50.1495,372.665 40.5,371.5C 44.02,367.116 47.02,362.45 49.5,357.5 Z"/></g>
<g><path style="opacity:1" fill="#672cbc" d="M 250.5,254.5 C 244.678,261.142 240.678,268.808 238.5,277.5C 235.443,274.974 232.109,272.974 228.5,271.5C 227.389,266.584 227.222,261.584 228,256.5C 230.09,252.033 233.59,249.366 238.5,248.5C 243.064,249.448 247.064,251.448 250.5,254.5 Z"/></g>
<g><path style="opacity:1" fill="#672cbc" d="M 388.5,260.5 C 392.001,272.097 390.501,283.097 384,293.5C 377.333,302.833 370.667,312.167 364,321.5C 351.454,335.742 336.287,339.575 318.5,333C 313.536,319.94 308.869,306.773 304.5,293.5C 304.435,293.062 304.601,292.728 305,292.5C 308.293,295.787 312.127,298.287 316.5,300C 337.561,306.978 355.394,302.145 370,285.5C 375.7,276.743 381.867,268.409 388.5,260.5 Z"/></g>
<g><path style="opacity:1" fill="#fbcfa2" d="M 402.5,289.5 C 417.167,289.5 431.833,289.5 446.5,289.5C 446.5,314.167 446.5,338.833 446.5,363.5C 432.496,363.667 418.496,363.5 404.5,363C 400.756,361.983 397.089,360.816 393.5,359.5C 383.445,348.469 379.945,335.469 383,320.5C 390.524,310.78 397.024,300.446 402.5,289.5 Z"/></g>
<g><path style="opacity:1" fill="#594939" d="M 402.5,289.5 C 417.324,288.504 432.324,288.171 447.5,288.5C 447.831,317.005 447.498,345.338 446.5,373.5C 446.5,370.167 446.5,366.833 446.5,363.5C 446.5,338.833 446.5,314.167 446.5,289.5C 431.833,289.5 417.167,289.5 402.5,289.5 Z"/></g>
<g><path style="opacity:1" fill="#aaaeaf" d="M 464.5,290.5 C 462.51,312.809 461.844,335.475 462.5,358.5C 461.903,363.294 462.57,367.627 464.5,371.5C 463.791,372.404 462.791,372.737 461.5,372.5C 461.5,344.833 461.5,317.167 461.5,289.5C 462.791,289.263 463.791,289.596 464.5,290.5 Z"/></g>
<g><path style="opacity:1" fill="#f3f7f7" d="M 464.5,290.5 C 477.103,293.439 486.103,300.772 491.5,312.5C 491.534,334.099 481.868,349.433 462.5,358.5C 461.844,335.475 462.51,312.809 464.5,290.5 Z"/></g>
<g><path style="opacity:1" fill="#f7cca0" d="M 35.5,306.5 C 45.4785,307.829 55.4785,309.162 65.5,310.5C 63.9201,321.473 62.5867,332.473 61.5,343.5C 55.4749,342.882 49.4749,342.382 43.5,342C 35.2916,351.557 27.7916,361.723 21,372.5C 15.3111,373.799 13.3111,371.466 15,365.5C 18.574,348.048 22.574,330.715 27,313.5C 29.4412,310.546 32.2745,308.213 35.5,306.5 Z"/></g>
<g><path style="opacity:1" fill="#d3e1e7" d="M 491.5,312.5 C 494.851,317.395 496.518,322.895 496.5,329C 496.176,351.135 485.51,365.302 464.5,371.5C 462.57,367.627 461.903,363.294 462.5,358.5C 481.868,349.433 491.534,334.099 491.5,312.5 Z"/></g>
<g><path style="opacity:1" fill="#672cbc" d="M 76.5,340.5 C 113.842,345.557 151.175,350.723 188.5,356C 199.801,358.009 209.968,355.509 219,348.5C 219.464,349.094 219.631,349.761 219.5,350.5C 216.491,364.506 207.824,372.173 193.5,373.5C 153.804,368.353 114.137,363.02 74.5,357.5C 74.4399,351.705 75.1066,346.038 76.5,340.5 Z"/></g>
<g><path style="opacity:1" fill="#f8b47f" d="M 313.5,352.5 C 325.097,355.817 336.764,358.983 348.5,362C 352.5,365.667 352.5,369.333 348.5,373C 330.167,373.667 311.833,373.667 293.5,373C 289.357,371.272 286.024,368.606 283.5,365C 293.526,360.719 303.526,356.552 313.5,352.5 Z"/></g>
<g><path style="opacity:1" fill="#f8b47f" d="M 393.5,359.5 C 397.089,360.816 400.756,361.983 404.5,363C 418.496,363.5 432.496,363.667 446.5,363.5C 446.5,366.833 446.5,370.167 446.5,373.5C 435.436,373.906 424.436,373.406 413.5,372C 405.637,369.615 398.97,365.448 393.5,359.5 Z"/></g>
</svg>
