<svg width="37" height="36" viewBox="0 0 37 36" fill="none" xmlns="http://www.w3.org/2000/svg">
<g clip-path="url(#clip0_1102_1080)">
<path d="M31.4531 12.6219V5.97656C31.4531 5.39409 30.9809 4.92188 30.3984 4.92188H23.7531L19.1192 0.307336C18.7076 -0.102445 18.0423 -0.102445 17.6307 0.307336L12.9969 4.92188H6.35156C5.76909 4.92188 5.29688 5.39409 5.29688 5.97656V12.6219L0.682336 17.2558C0.272555 17.6674 0.272555 18.3327 0.682336 18.7443L5.29688 23.3781V30.0234C5.29688 30.6059 5.76909 31.0781 6.35156 31.0781H12.9969L17.6307 35.6927C17.8365 35.8976 18.1058 36 18.375 36C18.6442 36 18.9135 35.8976 19.1192 35.6927L23.7531 31.0781H30.3984C30.9809 31.0781 31.4531 30.6059 31.4531 30.0234V23.3781L36.0677 18.7443C36.4774 18.3327 36.4774 17.6674 36.0677 17.2558L31.4531 12.6219ZM29.6511 22.1983C29.4543 22.396 29.3438 22.6635 29.3438 22.9425V28.9688H23.3175C23.0386 28.9688 22.771 29.0793 22.5734 29.2761L18.375 33.4569L14.1767 29.2761C13.979 29.0793 13.7115 28.9688 13.4325 28.9688H7.40625V22.9425C7.40625 22.6636 7.29572 22.396 7.09891 22.1984L2.91813 18L7.09891 13.8017C7.29572 13.604 7.40625 13.3365 7.40625 13.0575V7.03125H13.4325C13.7114 7.03125 13.979 6.92072 14.1766 6.72391L18.375 2.54313L22.5734 6.72391C22.7711 6.92072 23.0386 7.03125 23.3175 7.03125H29.3438V13.0575C29.3438 13.3364 29.4543 13.604 29.6511 13.8016L33.8319 18L29.6511 22.1983Z" fill="#994EF8"/>
</g>
<path d="M18.9188 11.808C19.5721 11.808 20.1321 11.9247 20.5988 12.158C21.0654 12.382 21.4154 12.6947 21.6488 13.096C21.8914 13.4973 22.0128 13.9453 22.0128 14.44C22.0128 15.0653 21.8354 15.588 21.4808 16.008C21.1354 16.4187 20.6454 16.666 20.0108 16.75V16.82C20.6921 17.016 21.2241 17.31 21.6068 17.702C21.9988 18.0847 22.1948 18.6167 22.1948 19.298C22.1948 20.1287 21.9194 20.8053 21.3688 21.328C20.8181 21.8413 20.0294 22.098 19.0028 22.098C17.9481 22.098 17.0988 21.832 16.4548 21.3C15.8108 20.7587 15.4421 19.9607 15.3488 18.906H16.9308C16.9868 19.466 17.1874 19.914 17.5328 20.25C17.8781 20.5767 18.3448 20.74 18.9328 20.74C19.4834 20.74 19.9034 20.5953 20.1928 20.306C20.4914 20.0167 20.6408 19.6433 20.6408 19.186C20.6408 18.6353 20.4261 18.2153 19.9968 17.926C19.5768 17.6367 18.9654 17.492 18.1628 17.492H17.7848V16.176H18.1628C19.6841 16.1947 20.4448 15.6767 20.4448 14.622C20.4448 14.1647 20.3048 13.8053 20.0248 13.544C19.7448 13.2827 19.3621 13.152 18.8768 13.152C18.3914 13.152 17.9854 13.3013 17.6588 13.6C17.3321 13.8893 17.1361 14.314 17.0708 14.874H15.5028C15.5681 13.9033 15.8948 13.152 16.4828 12.62C17.0708 12.0787 17.8828 11.808 18.9188 11.808Z" fill="#240F4F"/>
<defs>
<clipPath id="clip0_1102_1080">
<rect width="36" height="36" fill="white" transform="translate(0.375)"/>
</clipPath>
</defs>
</svg>
