<svg width="37" height="36" viewBox="0 0 37 36" fill="none" xmlns="http://www.w3.org/2000/svg">
<g clip-path="url(#clip0_1102_1063)">
<path d="M31.4531 12.6219V5.97656C31.4531 5.39409 30.9809 4.92188 30.3984 4.92188H23.7531L19.1192 0.307336C18.7076 -0.102445 18.0423 -0.102445 17.6307 0.307336L12.9969 4.92188H6.35156C5.76909 4.92188 5.29688 5.39409 5.29688 5.97656V12.6219L0.682336 17.2558C0.272555 17.6674 0.272555 18.3327 0.682336 18.7443L5.29688 23.3781V30.0234C5.29688 30.6059 5.76909 31.0781 6.35156 31.0781H12.9969L17.6307 35.6927C17.8365 35.8976 18.1058 36 18.375 36C18.6442 36 18.9135 35.8976 19.1192 35.6927L23.7531 31.0781H30.3984C30.9809 31.0781 31.4531 30.6059 31.4531 30.0234V23.3781L36.0677 18.7443C36.4774 18.3327 36.4774 17.6674 36.0677 17.2558L31.4531 12.6219ZM29.6511 22.1983C29.4543 22.396 29.3438 22.6635 29.3438 22.9425V28.9688H23.3175C23.0386 28.9688 22.771 29.0793 22.5734 29.2761L18.375 33.4569L14.1767 29.2761C13.979 29.0793 13.7115 28.9688 13.4325 28.9688H7.40625V22.9425C7.40625 22.6636 7.29572 22.396 7.09891 22.1984L2.91813 18L7.09891 13.8017C7.29572 13.604 7.40625 13.3365 7.40625 13.0575V7.03125H13.4325C13.7114 7.03125 13.979 6.92072 14.1766 6.72391L18.375 2.54313L22.5734 6.72391C22.7711 6.92072 23.0386 7.03125 23.3175 7.03125H29.3438V13.0575C29.3438 13.3364 29.4543 13.604 29.6511 13.8016L33.8319 18L29.6511 22.1983Z" fill="#994EF8"/>
</g>
<path d="M14.9633 20.754C16.4753 19.718 17.684 18.7053 18.5893 17.716C19.504 16.7173 19.9613 15.7933 19.9613 14.944C19.9613 14.44 19.8353 14.0387 19.5833 13.74C19.3407 13.4413 18.944 13.292 18.3933 13.292C17.824 13.292 17.3947 13.4787 17.1053 13.852C16.816 14.216 16.6527 14.7387 16.6153 15.42H15.0613C15.1267 14.2907 15.472 13.4273 16.0973 12.83C16.732 12.2327 17.5393 11.934 18.5193 11.934C19.4807 11.934 20.232 12.1907 20.7733 12.704C21.324 13.208 21.5993 13.908 21.5993 14.804C21.5993 15.5227 21.3753 16.2507 20.9273 16.988C20.4887 17.7253 19.9287 18.4067 19.2473 19.032C18.566 19.648 17.8613 20.18 17.1333 20.628H21.8233V21.93H14.9633V20.754Z" fill="#240F4F"/>
<defs>
<clipPath id="clip0_1102_1063">
<rect width="36" height="36" fill="white" transform="translate(0.375)"/>
</clipPath>
</defs>
</svg>
