<?xml version="1.0" standalone="no"?>
<!DOCTYPE svg PUBLIC "-//W3C//DTD SVG 20010904//EN"
 "http://www.w3.org/TR/2001/REC-SVG-20010904/DTD/svg10.dtd">
<svg version="1.0" xmlns="http://www.w3.org/2000/svg"
 width="512.000000pt" height="512.000000pt" viewBox="0 0 512.000000 512.000000"
 preserveAspectRatio="xMidYMid meet">

<g transform="translate(0.000000,512.000000) scale(0.100000,-0.100000)"
fill="#8789A3" stroke="none">
<path d="M2412 4155 c-81 -18 -194 -73 -259 -127 -156 -130 -231 -300 -220
-498 7 -119 34 -198 99 -297 85 -126 220 -219 378 -259 94 -24 251 -16 348 19
191 67 347 233 397 423 19 75 19 223 0 298 -82 312 -417 511 -743 441z"/>
<path d="M4073 3666 c-217 -55 -364 -241 -366 -461 -1 -266 214 -475 488 -475
218 0 404 137 466 342 27 89 23 214 -10 300 -48 124 -156 228 -289 279 -71 27
-214 35 -289 15z"/>
<path d="M808 3624 c-84 -20 -154 -59 -220 -122 -110 -104 -154 -216 -146
-368 4 -80 10 -103 40 -166 44 -91 95 -150 172 -200 149 -96 344 -105 506 -23
95 48 189 155 226 255 128 358 -203 716 -578 624z"/>
<path d="M2422 2680 c-203 -26 -422 -111 -590 -230 -247 -174 -429 -443 -497
-736 -22 -96 -35 -265 -35 -469 0 -208 8 -248 53 -275 31 -19 61 -20 1224 -20
750 0 1201 4 1217 10 14 5 35 24 47 42 20 32 20 43 16 323 -6 317 -13 373 -76
544 -81 220 -254 444 -452 584 -136 96 -329 178 -499 212 -95 19 -313 27 -408
15z"/>
<path d="M4050 2508 c-119 -17 -299 -88 -384 -151 -18 -13 -16 -17 35 -85 200
-262 289 -538 289 -899 l0 -123 536 0 536 0 30 30 30 31 -4 227 c-5 210 -7
234 -32 315 -136 452 -565 722 -1036 655z"/>
<path d="M833 2449 c-223 -21 -418 -115 -575 -277 -129 -132 -203 -271 -239
-447 -22 -106 -27 -446 -8 -489 26 -55 31 -56 598 -56 l521 0 0 149 c0 269 29
443 105 626 40 99 107 215 167 296 31 40 37 54 26 61 -46 31 -160 81 -232 102
-75 22 -109 28 -246 40 -19 2 -72 -1 -117 -5z"/>
</g>
</svg>
