<?xml version="1.0" encoding="UTF-8"?>
<!DOCTYPE svg PUBLIC "-//W3C//DTD SVG 1.1//EN" "http://www.w3.org/Graphics/SVG/1.1/DTD/svg11.dtd">
<svg xmlns="http://www.w3.org/2000/svg" version="1.1" width="512px" height="512px" style="shape-rendering:geometricPrecision; text-rendering:geometricPrecision; image-rendering:optimizeQuality; fill-rule:evenodd; clip-rule:evenodd" xmlns:xlink="http://www.w3.org/1999/xlink">
<g><path style="opacity:0.967" fill="#a164f4" d="M 205.5,4.5 C 208.32,4.24751 210.986,4.74751 213.5,6C 219.667,10.1667 225.833,14.3333 232,18.5C 238.748,13.8757 245.581,9.37573 252.5,5C 255.303,4.24501 257.97,4.57834 260.5,6C 266.667,10.1667 272.833,14.3333 279,18.5C 286.496,13.1506 294.329,8.48392 302.5,4.5C 313.167,9.92254 323.333,16.2559 333,23.5C 334.422,26.0301 334.755,28.6967 334,31.5C 323.55,52.9012 312.716,74.0678 301.5,95C 310.833,95.3333 320.167,95.6667 329.5,96C 346.333,104.138 350.5,116.638 342,133.5C 338.211,138.308 333.378,141.475 327.5,143C 386.67,174.779 423.503,223.612 438,289.5C 446.278,332.84 448.611,376.507 445,420.5C 440.314,455.836 421.481,480.002 388.5,493C 367.102,500.233 345.102,504.233 322.5,505C 286.844,506.442 251.177,506.775 215.5,506C 188.128,506.218 161.128,503.218 134.5,497C 92.0229,484.845 68.8562,456.679 65,412.5C 63.5165,378.712 64.8499,345.045 69,311.5C 79.8725,237.018 117.872,181.351 183,144.5C 178.153,141.662 173.486,137.995 169,133.5C 161.352,119.46 163.852,107.626 176.5,98C 178.246,97.5291 179.913,96.8624 181.5,96C 190.833,95.6667 200.167,95.3333 209.5,95C 197.562,73.291 186.562,51.1243 176.5,28.5C 176.556,25.8887 177.556,23.722 179.5,22C 188.405,16.3913 197.072,10.5579 205.5,4.5 Z"/></g>
<g><path style="opacity:1" fill="white" d="M 206.5,23.5 C 207.873,23.3433 209.207,23.51 210.5,24C 217.042,29.3504 224.208,33.5171 232,36.5C 233.167,36.3333 234.333,36.1667 235.5,36C 242.037,31.5681 248.703,27.4015 255.5,23.5C 262.297,27.4015 268.963,31.5681 275.5,36C 277.833,36.6667 280.167,36.6667 282.5,36C 289.037,31.5681 295.703,27.4015 302.5,23.5C 306.962,25.9008 311.296,28.5674 315.5,31.5C 304.833,52.5 294.167,73.5 283.5,94.5C 264.833,95.8333 246.167,95.8333 227.5,94.5C 216.578,73.6559 205.911,52.6559 195.5,31.5C 199.411,29.0566 203.078,26.3899 206.5,23.5 Z"/></g>
<g><path style="opacity:1" fill="white" d="M 185.5,111.5 C 231.835,111.333 278.168,111.5 324.5,112C 329.689,114.913 330.856,119.08 328,124.5C 326.581,125.46 325.081,126.293 323.5,127C 277.833,127.667 232.167,127.667 186.5,127C 180.273,122.239 179.94,117.073 185.5,111.5 Z"/></g>
<g><path style="opacity:1" fill="white" d="M 224.5,142.5 C 245.503,142.333 266.503,142.5 287.5,143C 372.45,175.656 419.283,237.49 428,328.5C 430.24,354.125 430.907,379.791 430,405.5C 428.404,448.43 406.571,474.263 364.5,483C 352.592,485.32 340.592,486.987 328.5,488C 278.167,490 227.833,490 177.5,488C 159.209,486.676 141.543,482.676 124.5,476C 99.4795,464.485 85.3129,444.985 82,417.5C 78.6316,375.832 80.9649,334.499 89,293.5C 102.11,238.091 132.61,195.258 180.5,165C 194.821,156.673 209.488,149.173 224.5,142.5 Z"/></g>
<g><path style="opacity:1" fill="#a164f4" d="M 123.5,356.5 C 122.711,356.783 122.044,357.283 121.5,358C 131.828,358.5 142.161,358.666 152.5,358.5C 158.127,360.588 159.961,364.588 158,370.5C 156.786,372.049 155.286,373.215 153.5,374C 137.167,374.667 120.833,374.667 104.5,374C 98.8826,370.135 98.0493,365.302 102,359.5C 112.698,342.967 123.198,326.3 133.5,309.5C 123.851,308.668 114.184,308.168 104.5,308C 99.4648,304.987 98.2981,300.82 101,295.5C 101.903,294.299 103.069,293.465 104.5,293C 119.833,292.333 135.167,292.333 150.5,293C 155.599,294.695 157.432,298.195 156,303.5C 144.915,321.069 134.081,338.736 123.5,356.5 Z"/></g>
<g><path style="opacity:1" fill="#a164f4" d="M 191.5,293.5 C 196.223,292.553 200.056,293.886 203,297.5C 211.368,320.271 219.535,343.104 227.5,366C 226.008,372.418 222.008,374.751 215.5,373C 212.292,370.229 210.292,366.729 209.5,362.5C 200.19,361.502 190.857,361.168 181.5,361.5C 181.035,365.062 179.868,368.395 178,371.5C 168.222,375.396 163.889,372.063 165,361.5C 172.197,342.243 179.197,322.91 186,303.5C 187.07,299.689 188.903,296.356 191.5,293.5 Z"/></g>
<g><path style="opacity:1" fill="#a164f4" d="M 248.5,299.5 C 248.334,305.509 248.501,311.509 249,317.5C 249.717,316.956 250.217,316.289 250.5,315.5C 259.47,308.342 268.47,301.175 277.5,294C 283.47,293.139 287.137,295.639 288.5,301.5C 288.352,304.63 287.018,307.13 284.5,309C 273.996,317.341 263.663,325.841 253.5,334.5C 262.525,343.692 272.025,352.358 282,360.5C 285.949,369.521 283.116,374.021 273.5,374C 265.037,367.206 256.87,360.039 249,352.5C 248.667,358.167 248.333,363.833 248,369.5C 242.584,376.402 237.584,376.069 233,368.5C 232.333,345.167 232.333,321.833 233,298.5C 235.735,292.878 239.901,291.378 245.5,294C 247.16,295.488 248.16,297.321 248.5,299.5 Z"/></g>
<g><path style="opacity:1" fill="#a164f4" d="M 315.5,293.5 C 320.635,292.426 324.468,294.093 327,298.5C 334.47,319.909 342.136,341.243 350,362.5C 350.949,371.217 347.116,374.717 338.5,373C 335.942,369.678 333.942,366.011 332.5,362C 323.5,361.333 314.5,361.333 305.5,362C 304.438,366.193 302.438,369.859 299.5,373C 290.884,374.717 287.051,371.217 288,362.5C 296.055,340.057 304.389,317.724 313,295.5C 313.995,294.934 314.828,294.267 315.5,293.5 Z"/></g>
<g><path style="opacity:1" fill="#a164f4" d="M 347.5,292.5 C 367.901,292.035 388.234,292.535 408.5,294C 412.5,298.333 412.5,302.667 408.5,307C 400.611,308.435 392.611,308.935 384.5,308.5C 384.667,328.836 384.5,349.169 384,369.5C 378.67,376.311 373.67,375.977 369,368.5C 368.5,348.503 368.333,328.503 368.5,308.5C 361.159,308.666 353.826,308.5 346.5,308C 340.939,302.353 341.272,297.186 347.5,292.5 Z"/></g>
<g><path style="opacity:1" fill="white" d="M 248.5,299.5 C 249.167,304.833 249.833,310.167 250.5,315.5C 250.217,316.289 249.717,316.956 249,317.5C 248.501,311.509 248.334,305.509 248.5,299.5 Z"/></g>
<g><path style="opacity:1" fill="white" d="M 318.5,325.5 C 321.913,331.372 324.58,337.706 326.5,344.5C 321.5,345.833 316.5,345.833 311.5,344.5C 314.037,338.22 316.37,331.887 318.5,325.5 Z"/></g>
<g><path style="opacity:1" fill="white" d="M 194.5,325.5 C 195.75,325.577 196.583,326.244 197,327.5C 199.172,333.35 201.338,339.183 203.5,345C 198.511,345.499 193.511,345.666 188.5,345.5C 190.5,338.833 192.5,332.167 194.5,325.5 Z"/></g>
<g><path style="opacity:1" fill="#a164f4" d="M 123.5,356.5 C 133.167,357.167 142.833,357.833 152.5,358.5C 142.161,358.666 131.828,358.5 121.5,358C 122.044,357.283 122.711,356.783 123.5,356.5 Z"/></g>
</svg>
